<svg width="48" height="48" viewBox="0 0 48 48" fill="none" xmlns="http://www.w3.org/2000/svg">
<g clip-path="url(#clip0_1_2413)">
<rect width="48" height="48" fill="black"/>
<path d="M16.0772 32C18.7696 32 20.7889 30.9182 21.9481 29.45L19.7045 27.4409C18.807 28.4841 17.6852 28.9864 16.152 28.9864C13.0856 28.9864 11.2159 26.5909 11.2159 23.6932C11.2159 20.7955 13.0856 18.3227 16.0772 18.3227C17.4608 18.3227 18.62 18.825 19.5549 19.8295L21.7612 17.8591C20.3402 16.1977 18.62 15.3864 16.0772 15.3864C11.2907 15.3864 8 19.1341 8 23.7318C8 28.2909 11.4777 32 16.0772 32ZM27.5947 32C29.6514 32 30.6984 31.1114 31.2967 29.7591V31.6909H34.2135V19.7909H31.2593V21.6841C30.6236 20.4091 29.614 19.5591 27.5947 19.5591C24.4162 19.5591 21.9107 22.3795 21.9107 25.8182C21.9107 29.2568 24.4162 32 27.5947 32ZM24.9023 25.7795C24.9023 23.925 26.1737 22.3409 28.0808 22.3409C30.0627 22.3409 31.2967 23.925 31.2967 25.7795C31.2967 27.6341 30.0253 29.1795 28.0808 29.1795C26.1737 29.2182 24.9023 27.5955 24.9023 25.7795ZM36.0084 31.6909H39V15H36.0084V31.6909Z" fill="white"/>
</g>
<defs>
<clipPath id="clip0_1_2413">
<rect width="48" height="48" fill="white"/>
</clipPath>
</defs>
</svg>
