<svg width="48" height="48" viewBox="0 0 48 48" fill="none" xmlns="http://www.w3.org/2000/svg">
<g clip-path="url(#clip0_67_1282)">
<rect width="48" height="48" fill="black"/>
<path d="M18.8396 9H9V18.7861H18.8396V9Z" fill="url(#paint0_linear_67_1282)"/>
<path d="M30.4974 20.8181H20.6578V30.6042H30.4974V20.8181Z" fill="url(#paint1_linear_67_1282)"/>
<path d="M30.4974 9H20.6578V18.7861H38.9466V17.3957C38.9466 15.1497 38.0375 13.0642 36.4867 11.4599C34.8824 9.90909 32.7433 9 30.4974 9Z" fill="url(#paint2_linear_67_1282)"/>
<path d="M9 20.8181V30.6042C9 32.8502 9.90909 34.9358 11.4599 36.54C13.0642 38.0908 15.2032 38.9999 17.4492 38.9999H18.8396V20.8181H9Z" fill="url(#paint3_linear_67_1282)"/>
<path opacity="0.18" d="M9 9L18.8396 18.7861H9V9Z" fill="url(#paint4_linear_67_1282)"/>
<path opacity="0.18" d="M20.6578 20.8181L30.4974 30.6042H20.6578V20.8181Z" fill="url(#paint5_linear_67_1282)"/>
<path opacity="0.18" d="M9 30.5507C9 32.7967 9.90909 34.8823 11.4599 36.4866C13.0642 38.0374 15.2032 38.9465 17.4492 38.9465H18.8396V20.8181L9 30.5507Z" fill="url(#paint6_linear_67_1282)"/>
<path opacity="0.18" d="M30.4974 9C32.7433 9 34.8824 9.90909 36.4867 11.4599C38.0909 13.0107 38.9466 15.1497 38.9466 17.3957V18.7861H20.6578L30.4974 9Z" fill="url(#paint7_linear_67_1282)"/>
</g>
<defs>
<linearGradient id="paint0_linear_67_1282" x1="32.9321" y1="33.8597" x2="-8.44859" y2="-9.61803" gradientUnits="userSpaceOnUse">
<stop stop-color="#E82A73"/>
<stop offset="0.113" stop-color="#DE2D7A"/>
<stop offset="0.3" stop-color="#C5388F"/>
<stop offset="0.54" stop-color="#9B4AB0"/>
<stop offset="0.818" stop-color="#6262DE"/>
<stop offset="0.994" stop-color="#3B73FF"/>
</linearGradient>
<linearGradient id="paint1_linear_67_1282" x1="33.1622" y1="33.6443" x2="-8.21849" y2="-9.83334" gradientUnits="userSpaceOnUse">
<stop stop-color="#FF3C82"/>
<stop offset="0.103" stop-color="#F53E88"/>
<stop offset="0.274" stop-color="#DC4598"/>
<stop offset="0.492" stop-color="#B251B2"/>
<stop offset="0.745" stop-color="#7961D7"/>
<stop offset="0.994" stop-color="#3B73FF"/>
</linearGradient>
<linearGradient id="paint2_linear_67_1282" x1="32.9771" y1="29.0118" x2="18.9557" y2="-21.8004" gradientUnits="userSpaceOnUse">
<stop stop-color="#E82A73"/>
<stop offset="0.113" stop-color="#DE2D7A"/>
<stop offset="0.3" stop-color="#C5388F"/>
<stop offset="0.54" stop-color="#9B4AB0"/>
<stop offset="0.818" stop-color="#6262DE"/>
<stop offset="0.994" stop-color="#3B73FF"/>
</linearGradient>
<linearGradient id="paint3_linear_67_1282" x1="28.4217" y1="33.1946" x2="-21.7732" y2="17.9027" gradientUnits="userSpaceOnUse">
<stop stop-color="#E82A73"/>
<stop offset="0.113" stop-color="#DE2D7A"/>
<stop offset="0.3" stop-color="#C5388F"/>
<stop offset="0.54" stop-color="#9B4AB0"/>
<stop offset="0.818" stop-color="#6262DE"/>
<stop offset="0.994" stop-color="#3B73FF"/>
</linearGradient>
<linearGradient id="paint4_linear_67_1282" x1="4.30556" y1="-3.26022" x2="18.3656" y2="28.9565" gradientUnits="userSpaceOnUse">
<stop stop-color="#E82A73"/>
<stop offset="0.114" stop-color="#DE286E"/>
<stop offset="0.303" stop-color="#C52361"/>
<stop offset="0.544" stop-color="#9B1A4D"/>
<stop offset="0.825" stop-color="#620F30"/>
<stop offset="0.994" stop-color="#3D081E"/>
</linearGradient>
<linearGradient id="paint5_linear_67_1282" x1="15.9687" y1="8.53689" x2="30.0288" y2="40.7537" gradientUnits="userSpaceOnUse">
<stop stop-color="#E82A73"/>
<stop offset="0.114" stop-color="#DE286E"/>
<stop offset="0.303" stop-color="#C52361"/>
<stop offset="0.544" stop-color="#9B1A4D"/>
<stop offset="0.825" stop-color="#620F30"/>
<stop offset="0.994" stop-color="#3D081E"/>
</linearGradient>
<linearGradient id="paint6_linear_67_1282" x1="-0.908861" y1="18.0664" x2="30.9338" y2="39.2203" gradientUnits="userSpaceOnUse">
<stop stop-color="#E82A73"/>
<stop offset="0.114" stop-color="#DE286E"/>
<stop offset="0.303" stop-color="#C52361"/>
<stop offset="0.544" stop-color="#9B1A4D"/>
<stop offset="0.825" stop-color="#620F30"/>
<stop offset="0.994" stop-color="#3D081E"/>
</linearGradient>
<linearGradient id="paint7_linear_67_1282" x1="103.07" y1="596.295" x2="108.527" y2="639.375" gradientUnits="userSpaceOnUse">
<stop stop-color="#E82A73"/>
<stop offset="0.114" stop-color="#DE286E"/>
<stop offset="0.303" stop-color="#C52361"/>
<stop offset="0.544" stop-color="#9B1A4D"/>
<stop offset="0.825" stop-color="#620F30"/>
<stop offset="0.994" stop-color="#3D081E"/>
</linearGradient>
<clipPath id="clip0_67_1282">
<rect width="48" height="48" fill="white"/>
</clipPath>
</defs>
</svg>
