<svg width="48" height="48" viewBox="0 0 48 48" fill="none" xmlns="http://www.w3.org/2000/svg">
<g clip-path="url(#clip0_1_2382)">
<rect width="48" height="48" fill="white"/>
<mask id="mask0_1_2382" style="mask-type:luminance" maskUnits="userSpaceOnUse" x="10" y="9" width="29" height="30">
<path d="M38.7215 21.0623H24.8089V26.7562H32.8031C32.6746 27.562 32.3861 28.3548 31.9635 29.0776C31.4794 29.9058 30.8808 30.5363 30.2673 31.0164C28.4296 32.4547 26.2871 32.7488 24.7992 32.7488C21.0404 32.7488 17.8288 30.2675 16.5856 26.896C16.5354 26.7736 16.5021 26.6472 16.4615 26.5223C16.1868 25.6642 16.0366 24.7554 16.0366 23.8108C16.0366 22.8278 16.1992 21.8867 16.4956 20.998C17.6647 17.4927 20.9487 14.8747 24.8019 14.8747C25.5769 14.8747 26.3232 14.9689 27.031 15.1568C28.6485 15.5863 29.7927 16.4322 30.4938 17.1013L34.724 12.87C32.1508 10.4602 28.7963 9 24.7948 9C21.596 8.99993 18.6426 10.0179 16.2224 11.7383C14.2598 13.1335 12.6501 15.0016 11.5637 17.171C10.5533 19.1826 10 21.4118 10 23.8086C10 26.2055 10.5541 28.4579 11.5646 30.4508V30.4642C12.6319 32.58 14.1926 34.4018 16.0895 35.7906C17.7467 37.0039 20.7181 38.6197 24.7948 38.6197C27.1393 38.6197 29.2171 38.188 31.0495 37.379C32.3714 36.7953 33.5426 36.0341 34.603 35.0557C36.0041 33.763 37.1014 32.164 37.8504 30.3243C38.5994 28.4847 39 26.4043 39 24.1489C39 23.0985 38.8967 22.0317 38.7215 21.0622V21.0623Z" fill="white"/>
</mask>
<g mask="url(#mask0_1_2382)">
<g filter="url(#filter0_f_1_2382)">
<path d="M9.78662 23.9092C9.802 26.2683 10.4601 28.7023 11.4564 30.6671V30.6806C12.1762 32.1076 13.16 33.2348 14.2805 34.3516L21.048 31.8295C19.7676 31.1652 19.5723 30.7581 18.6544 30.0154C17.7165 29.0494 17.0175 27.9404 16.5821 26.6401H16.5646L16.5821 26.6266C16.2957 25.7679 16.2675 24.8564 16.2569 23.9092H9.78662Z" fill="url(#paint0_radial_1_2382)"/>
</g>
<g filter="url(#filter1_f_1_2382)">
<path d="M24.809 8.89227C24.1401 11.2925 24.3958 13.6255 24.809 14.983C25.5814 14.9836 26.3255 15.0776 27.0311 15.265C28.6486 15.6945 29.7926 16.5404 30.4937 17.2095L34.8323 12.8701C32.2621 10.4631 29.169 8.89607 24.809 8.89227Z" fill="url(#paint1_radial_1_2382)"/>
</g>
<g filter="url(#filter2_f_1_2382)">
<path d="M24.7944 8.87335C21.5134 8.87328 18.4843 9.91739 16.002 11.682C15.0803 12.3372 14.2345 13.094 13.4813 13.9357C13.284 15.8262 14.9583 18.1499 18.2739 18.1307C19.8826 16.2194 22.2618 14.9828 24.9099 14.9828C24.9123 14.9828 24.9147 14.983 24.9171 14.983L24.8089 8.87378C24.804 8.87378 24.7993 8.87335 24.7944 8.87335Z" fill="url(#paint2_radial_1_2382)"/>
</g>
<g filter="url(#filter3_f_1_2382)">
<path d="M35.6236 24.5933L32.695 26.6481C32.5665 27.454 32.2778 28.2467 31.8552 28.9695C31.371 29.7977 30.7725 30.4282 30.1591 30.9084C28.3252 32.3437 26.1883 32.6392 24.7008 32.6404C23.1632 35.3151 22.8937 36.6548 24.8089 38.8135C27.1788 38.8117 29.2799 38.3747 31.1331 37.5565C32.4727 36.965 33.6596 36.1936 34.7342 35.2021C36.1541 33.892 37.2663 32.2715 38.0253 30.4072C38.7844 28.5428 39.1903 26.4346 39.1903 24.1489L35.6236 24.5933Z" fill="url(#paint3_radial_1_2382)"/>
</g>
<g filter="url(#filter4_f_1_2382)">
<path d="M24.5927 20.8459V26.9725H38.6825C38.8064 26.1335 39.2162 25.0477 39.2162 24.1489C39.2162 23.0985 39.113 21.8155 38.9378 20.8459H24.5927Z" fill="#3086FF"/>
</g>
<g filter="url(#filter5_f_1_2382)">
<path d="M13.5485 13.7194C12.679 14.691 11.9362 15.7786 11.3473 16.9548C10.3368 18.9664 9.78357 21.4119 9.78357 23.8087C9.78357 23.8424 9.78631 23.8755 9.78653 23.9092C10.234 24.7855 15.9678 24.6177 16.2568 23.9092C16.2564 23.8761 16.2528 23.8439 16.2528 23.8108C16.2528 22.8277 16.4154 22.1031 16.7118 21.2144C17.0774 20.1181 17.6499 19.1086 18.382 18.2388C18.548 18.0224 18.9906 17.5572 19.1198 17.2782C19.169 17.1719 19.0304 17.1122 19.0227 17.0748C19.014 17.033 18.8283 17.0666 18.7867 17.0354C18.6546 16.9365 18.393 16.8848 18.2342 16.8389C17.8947 16.7407 17.332 16.5241 17.0195 16.2997C16.0316 15.5902 14.49 14.7427 13.5485 13.7194Z" fill="url(#paint4_radial_1_2382)"/>
</g>
<g filter="url(#filter6_f_1_2382)">
<path d="M17.0408 17.0789C19.3315 18.4962 19.9903 16.3635 21.5134 15.6962L18.864 10.0847C17.8894 10.503 16.9686 11.0228 16.1142 11.6301C14.8383 12.5371 13.7116 13.6439 12.7809 14.9035L17.0408 17.0789Z" fill="url(#paint5_radial_1_2382)"/>
</g>
<g filter="url(#filter7_f_1_2382)">
<path d="M17.9731 31.3959C14.898 32.5298 14.4166 32.5705 14.1335 34.5169C14.6745 35.056 15.2556 35.5547 15.8732 36.0069C17.5304 37.2202 20.718 38.836 24.7947 38.836C24.7995 38.836 24.8041 38.8356 24.8089 38.8356V32.5322C24.8058 32.5322 24.8023 32.5324 24.7992 32.5324C23.2726 32.5324 22.0527 32.1229 20.8019 31.4107C20.4935 31.2351 19.934 31.7066 19.6496 31.4958C19.2573 31.2051 18.3133 31.7463 17.9731 31.3959Z" fill="url(#paint6_radial_1_2382)"/>
</g>
<g opacity="0.5" filter="url(#filter8_f_1_2382)">
<path d="M23.0082 32.3337V38.7264C23.5786 38.7946 24.1722 38.836 24.7949 38.836C25.4192 38.836 26.0231 38.8033 26.61 38.7431V32.3768C25.9523 32.4916 25.3329 32.5324 24.7994 32.5324C24.1849 32.5324 23.5872 32.4594 23.0082 32.3337Z" fill="url(#paint7_linear_1_2382)"/>
</g>
</g>
</g>
<defs>
<filter id="filter0_f_1_2382" x="9.35151" y="23.4741" width="12.1316" height="11.3126" filterUnits="userSpaceOnUse" color-interpolation-filters="sRGB">
<feFlood flood-opacity="0" result="BackgroundImageFix"/>
<feBlend mode="normal" in="SourceGraphic" in2="BackgroundImageFix" result="shape"/>
<feGaussianBlur stdDeviation="0.217557" result="effect1_foregroundBlur_1_2382"/>
</filter>
<filter id="filter1_f_1_2382" x="23.9626" y="8.45716" width="11.3048" height="9.18749" filterUnits="userSpaceOnUse" color-interpolation-filters="sRGB">
<feFlood flood-opacity="0" result="BackgroundImageFix"/>
<feBlend mode="normal" in="SourceGraphic" in2="BackgroundImageFix" result="shape"/>
<feGaussianBlur stdDeviation="0.217557" result="effect1_foregroundBlur_1_2382"/>
</filter>
<filter id="filter2_f_1_2382" x="13.0306" y="8.43824" width="12.3216" height="10.1277" filterUnits="userSpaceOnUse" color-interpolation-filters="sRGB">
<feFlood flood-opacity="0" result="BackgroundImageFix"/>
<feBlend mode="normal" in="SourceGraphic" in2="BackgroundImageFix" result="shape"/>
<feGaussianBlur stdDeviation="0.217557" result="effect1_foregroundBlur_1_2382"/>
</filter>
<filter id="filter3_f_1_2382" x="23.0242" y="23.7138" width="16.6012" height="15.5348" filterUnits="userSpaceOnUse" color-interpolation-filters="sRGB">
<feFlood flood-opacity="0" result="BackgroundImageFix"/>
<feBlend mode="normal" in="SourceGraphic" in2="BackgroundImageFix" result="shape"/>
<feGaussianBlur stdDeviation="0.217557" result="effect1_foregroundBlur_1_2382"/>
</filter>
<filter id="filter4_f_1_2382" x="24.1575" y="20.4108" width="15.4938" height="6.99681" filterUnits="userSpaceOnUse" color-interpolation-filters="sRGB">
<feFlood flood-opacity="0" result="BackgroundImageFix"/>
<feBlend mode="normal" in="SourceGraphic" in2="BackgroundImageFix" result="shape"/>
<feGaussianBlur stdDeviation="0.217557" result="effect1_foregroundBlur_1_2382"/>
</filter>
<filter id="filter5_f_1_2382" x="9.34846" y="13.2842" width="10.2169" height="11.6561" filterUnits="userSpaceOnUse" color-interpolation-filters="sRGB">
<feFlood flood-opacity="0" result="BackgroundImageFix"/>
<feBlend mode="normal" in="SourceGraphic" in2="BackgroundImageFix" result="shape"/>
<feGaussianBlur stdDeviation="0.217557" result="effect1_foregroundBlur_1_2382"/>
</filter>
<filter id="filter6_f_1_2382" x="9.72186" y="7.02563" width="14.8505" height="13.5887" filterUnits="userSpaceOnUse" color-interpolation-filters="sRGB">
<feFlood flood-opacity="0" result="BackgroundImageFix"/>
<feBlend mode="normal" in="SourceGraphic" in2="BackgroundImageFix" result="shape"/>
<feGaussianBlur stdDeviation="1.52951" result="effect1_foregroundBlur_1_2382"/>
</filter>
<filter id="filter7_f_1_2382" x="13.6984" y="30.9356" width="11.5455" height="8.33556" filterUnits="userSpaceOnUse" color-interpolation-filters="sRGB">
<feFlood flood-opacity="0" result="BackgroundImageFix"/>
<feBlend mode="normal" in="SourceGraphic" in2="BackgroundImageFix" result="shape"/>
<feGaussianBlur stdDeviation="0.217557" result="effect1_foregroundBlur_1_2382"/>
</filter>
<filter id="filter8_f_1_2382" x="22.5731" y="31.8986" width="4.47203" height="7.37261" filterUnits="userSpaceOnUse" color-interpolation-filters="sRGB">
<feFlood flood-opacity="0" result="BackgroundImageFix"/>
<feBlend mode="normal" in="SourceGraphic" in2="BackgroundImageFix" result="shape"/>
<feGaussianBlur stdDeviation="0.217557" result="effect1_foregroundBlur_1_2382"/>
</filter>
<radialGradient id="paint0_radial_1_2382" cx="0" cy="0" r="1" gradientUnits="userSpaceOnUse" gradientTransform="translate(20.9126 34.1294) rotate(-92.3395) scale(14.7628 21.6848)">
<stop offset="0.141612" stop-color="#1ABD4D"/>
<stop offset="0.247515" stop-color="#6EC30D"/>
<stop offset="0.311547" stop-color="#8AC502"/>
<stop offset="0.366013" stop-color="#A2C600"/>
<stop offset="0.445673" stop-color="#C8C903"/>
<stop offset="0.540305" stop-color="#EBCB03"/>
<stop offset="0.615636" stop-color="#F7CD07"/>
<stop offset="0.699345" stop-color="#FDCD04"/>
<stop offset="0.771242" stop-color="#FDCE05"/>
<stop offset="0.860566" stop-color="#FFCE0A"/>
</radialGradient>
<radialGradient id="paint1_radial_1_2382" cx="0" cy="0" r="1" gradientTransform="matrix(10.2342 -2.51221e-05 -1.43846e-05 13.2169 34.4264 16.8955)" gradientUnits="userSpaceOnUse">
<stop offset="0.408458" stop-color="#FB4E5A"/>
<stop offset="1" stop-color="#FF4540"/>
</radialGradient>
<radialGradient id="paint2_radial_1_2382" cx="0" cy="0" r="1" gradientUnits="userSpaceOnUse" gradientTransform="translate(28.8374 6.96016) rotate(151.02) scale(16.3912 22.2428)">
<stop offset="0.231273" stop-color="#FF4541"/>
<stop offset="0.311547" stop-color="#FF4540"/>
<stop offset="0.457516" stop-color="#FF4640"/>
<stop offset="0.540305" stop-color="#FF473F"/>
<stop offset="0.699346" stop-color="#FF5138"/>
<stop offset="0.771242" stop-color="#FF5B33"/>
<stop offset="0.860566" stop-color="#FF6C29"/>
<stop offset="1" stop-color="#FF8C18"/>
</radialGradient>
<radialGradient id="paint3_radial_1_2382" cx="0" cy="0" r="1" gradientUnits="userSpaceOnUse" gradientTransform="translate(25.0221 36.8964) rotate(-127.454) scale(42.7606 15.784)">
<stop offset="0.131546" stop-color="#0CBA65"/>
<stop offset="0.209784" stop-color="#0BB86D"/>
<stop offset="0.297297" stop-color="#09B479"/>
<stop offset="0.396257" stop-color="#08AD93"/>
<stop offset="0.477124" stop-color="#0AA6A9"/>
<stop offset="0.568425" stop-color="#0D9CC6"/>
<stop offset="0.667385" stop-color="#1893DD"/>
<stop offset="0.768727" stop-color="#258BF1"/>
<stop offset="0.858506" stop-color="#3086FF"/>
</radialGradient>
<radialGradient id="paint4_radial_1_2382" cx="0" cy="0" r="1" gradientUnits="userSpaceOnUse" gradientTransform="translate(23.5381 11.6708) rotate(96.6178) scale(15.968 22.0785)">
<stop offset="0.366013" stop-color="#FF4E3A"/>
<stop offset="0.457516" stop-color="#FF8A1B"/>
<stop offset="0.540305" stop-color="#FFA312"/>
<stop offset="0.615636" stop-color="#FFB60C"/>
<stop offset="0.771242" stop-color="#FFCD0A"/>
<stop offset="0.860566" stop-color="#FECF0A"/>
<stop offset="0.915033" stop-color="#FECF08"/>
<stop offset="1" stop-color="#FDCD01"/>
</radialGradient>
<radialGradient id="paint5_radial_1_2382" cx="0" cy="0" r="1" gradientUnits="userSpaceOnUse" gradientTransform="translate(20.9503 11.5062) rotate(132.119) scale(7.93116 22.3702)">
<stop offset="0.315904" stop-color="#FF4C3C"/>
<stop offset="0.603818" stop-color="#FF692C"/>
<stop offset="0.726837" stop-color="#FF7825"/>
<stop offset="0.884534" stop-color="#FF8D1B"/>
<stop offset="1" stop-color="#FF9F13"/>
</radialGradient>
<radialGradient id="paint6_radial_1_2382" cx="0" cy="0" r="1" gradientUnits="userSpaceOnUse" gradientTransform="translate(28.8374 40.6592) rotate(-151.02) scale(16.3912 22.2428)">
<stop offset="0.231273" stop-color="#0FBC5F"/>
<stop offset="0.311547" stop-color="#0FBC5F"/>
<stop offset="0.366013" stop-color="#0FBC5E"/>
<stop offset="0.457516" stop-color="#0FBC5D"/>
<stop offset="0.540305" stop-color="#12BC58"/>
<stop offset="0.699346" stop-color="#28BF3C"/>
<stop offset="0.771242" stop-color="#38C02B"/>
<stop offset="0.860566" stop-color="#52C218"/>
<stop offset="0.915033" stop-color="#67C30F"/>
<stop offset="1" stop-color="#86C504"/>
</radialGradient>
<linearGradient id="paint7_linear_1_2382" x1="23.0082" y1="35.5849" x2="26.61" y2="35.5849" gradientUnits="userSpaceOnUse">
<stop stop-color="#0FBC5C"/>
<stop offset="1" stop-color="#0CBA65"/>
</linearGradient>
<clipPath id="clip0_1_2382">
<rect width="48" height="48" fill="white"/>
</clipPath>
</defs>
</svg>
