<svg width="48" height="48" viewBox="0 0 48 48" fill="none" xmlns="http://www.w3.org/2000/svg">
<g clip-path="url(#clip0_1_2416)">
<rect width="48" height="48" fill="url(#paint0_linear_1_2416)"/>
<path fill-rule="evenodd" clip-rule="evenodd" d="M10.9249 22.9014C18.441 19.6555 23.453 17.5157 25.9607 16.4818C33.1209 13.5299 34.6087 13.0171 35.5784 13.0002C35.7917 12.9965 36.2686 13.0488 36.5775 13.2973C36.8383 13.5071 36.9101 13.7905 36.9444 13.9894C36.9788 14.1883 37.0215 14.6414 36.9876 14.9954C36.5995 19.0363 34.9206 28.8426 34.0665 33.3686C33.7051 35.2836 32.9934 35.9258 32.3045 35.9886C30.8072 36.1252 29.6703 35.0078 28.2201 34.0656C25.9509 32.5912 24.669 31.6734 22.4663 30.2347C19.9207 28.572 21.5709 27.6581 23.0216 26.1646C23.4013 25.7738 29.9982 19.8262 30.1259 19.2867C30.1419 19.2192 30.1567 18.9677 30.0059 18.8349C29.8552 18.7021 29.6327 18.7475 29.4721 18.7836C29.2445 18.8348 25.6194 21.2097 18.5968 25.9084C17.5678 26.6088 16.6358 26.95 15.8008 26.9321C14.8802 26.9124 13.1094 26.4162 11.793 25.9921C10.1783 25.4718 8.89504 25.1968 9.00678 24.3133C9.06499 23.8531 9.70434 23.3824 10.9249 22.9014Z" fill="white"/>
</g>
<defs>
<linearGradient id="paint0_linear_1_2416" x1="24" y1="0" x2="24" y2="47.644" gradientUnits="userSpaceOnUse">
<stop stop-color="#2AABEE"/>
<stop offset="1" stop-color="#229ED9"/>
</linearGradient>
<clipPath id="clip0_1_2416">
<rect width="48" height="48" fill="white"/>
</clipPath>
</defs>
</svg>
